<?xml version="1.0" encoding="UTF-8"?>
<svg id="Layer_1" xmlns="http://www.w3.org/2000/svg" version="1.1" viewBox="0 0 80 100">
  <!-- Generator: Adobe Illustrator 29.3.1, SVG Export Plug-In . SVG Version: 2.1.0 Build 151)  -->
  <defs>
    <style>
      .st0 {
        fill: #bae6fd;
      }

      .st1 {
        opacity: .5;
      }

      .st2 {
        fill: #38bdf8;
      }
    </style>
  </defs>
  <g class="st1">
    <circle cx="59.8" cy="25.2" r="3"/>
    <circle cx="59.8" cy="25.2" r="3"/>
    <circle cx="59.8" cy="25.2" r="3"/>
  </g>
  <path class="st2" d="M59.7,12.8l-19.5,11.2v22.5l19.5,11.2,19.5-11.2v-22.4s-19.5-11.3-19.5-11.3Z"/>
  <g class="st1">
    <circle cx="21" cy="25.2" r="3"/>
    <circle cx="21" cy="25.2" r="3"/>
    <circle cx="21" cy="25.2" r="3"/>
  </g>
  <path class="st2" d="M21,12.7L1.6,24v22.4l19.4,11.2,19.4-11.2v-22.4l-19.4-11.3Z"/>
  <path class="st0" d="M59.7,12.8l-19.5,11.2,19.5,11.2,19.5-11.2s-19.5-11.2-19.5-11.2Z"/>
  <path class="st0" d="M21,12.7L1.5,24l19.5,11.2,19.5-11.2-19.5-11.3Z"/>
  <g class="st1">
    <circle cx="40" cy="59" r="3"/>
    <circle cx="40" cy="59" r="3"/>
    <circle cx="40" cy="59" r="3"/>
  </g>
  <path class="st2" d="M40.5,46.3l-19.5,11.2v22.5l19.5,11.2,19.5-11.2v-22.5l-19.5-11.2Z"/>
  <path class="st0" d="M40.5,46.3l-19.5,11.2,19.5,11.2,19.5-11.2s-19.5-11.2-19.5-11.2Z"/>
</svg>